<svg width="346" height="97" viewBox="0 0 346 97" fill="none" xmlns="http://www.w3.org/2000/svg">
<path d="M91.9113 48.9535C91.9113 61.1027 88.3879 72.0016 82.8127 79.802C77.2342 87.6068 69.7435 92.1535 61.7189 92.1535C53.3605 92.1535 39.1714 87.3017 26.9945 79.1994C14.7415 71.0465 5.51133 60.2727 5.51133 48.9535C5.51133 37.6343 14.7415 26.8605 26.9945 18.7075C39.1714 10.6053 53.3605 5.75351 61.7189 5.75351C69.7435 5.75351 77.2342 10.3001 82.8127 18.105C88.3879 25.9054 91.9113 36.8043 91.9113 48.9535Z" stroke="white" stroke-width="4.8"/>
<path d="M12.7891 65.0784C14.3409 63.6735 17.0267 61.5231 18.4891 60.3453M60.2008 46.3428C60.2008 46.3428 65.6049 41.7917 65.6045 34.9502C65.6042 28.1088 64.0005 23.9819 64.0005 23.9819C51.5385 26.2078 47.0154 31.0709 42.5578 48.5736C38.2497 49.6986 34.5843 50.9285 31.2391 52.4154M60.2008 46.3428L67.0794 47.8881C72.9334 49.2033 76.502 53.8485 79.3653 56.843C73.2343 63.2612 63.6279 66.3301 52.6373 59.4793C51.4477 62.3702 49.9518 64.6376 48.3994 66.6534M60.2008 46.3428L51.6805 47.6571M39.2641 87.5784C38.8033 83.0881 39.69 80.5698 40.7032 77.8284M31.2391 52.4154C39.114 55.6284 44.214 58.4784 48.3994 66.6534M31.2391 52.4154C26.6652 54.4485 22.6899 56.9621 18.4891 60.3453M48.3994 66.6534C45.4796 70.4447 42.3602 73.3455 40.7032 77.8284M18.4891 60.3453C28.3891 64.2112 35.2141 67.9284 40.7032 77.8284" stroke="white" stroke-width="3.6"/>
<path d="M59.6644 31.5537L53.8145 40.8537M68.3644 55.9287L56.0645 53.7537" stroke="white" stroke-width="1.8" stroke-miterlimit="1.55637"/>
<path d="M177.418 48.7622C177.418 46.2595 177.894 43.8945 178.845 41.6671C179.821 39.4397 181.147 37.4876 182.824 35.8108C184.501 34.134 186.44 32.8201 188.643 31.8691C190.87 30.893 193.247 30.405 195.775 30.405C198.303 30.405 200.68 30.893 202.908 31.8691C205.135 32.8201 207.075 34.134 208.727 35.8108C210.403 37.4876 211.717 39.4397 212.668 41.6671C213.644 43.8945 214.132 46.2595 214.132 48.7622C214.132 51.2899 213.644 53.6674 212.668 55.8948C211.717 58.1222 210.403 60.0743 208.727 61.7511C207.075 63.4029 205.135 64.7168 202.908 65.6928C200.68 66.6439 198.303 67.1194 195.775 67.1194C193.247 67.1194 190.87 66.6439 188.643 65.6928C186.44 64.7168 184.501 63.4029 182.824 61.7511C181.147 60.0743 179.821 58.1222 178.845 55.8948C177.894 53.6674 177.418 51.2899 177.418 48.7622ZM183.462 48.7622C183.462 50.5141 183.775 52.1658 184.401 53.7175C185.051 55.2441 185.927 56.5831 187.028 57.7343C188.13 58.8855 189.431 59.799 190.933 60.4747C192.434 61.1254 194.048 61.4508 195.775 61.4508C197.502 61.4508 199.116 61.1254 200.618 60.4747C202.12 59.799 203.421 58.8855 204.522 57.7343C205.623 56.5831 206.487 55.2441 207.112 53.7175C207.763 52.1658 208.088 50.5141 208.088 48.7622C208.088 47.0353 207.763 45.4086 207.112 43.8819C206.487 42.3303 205.623 40.9788 204.522 39.8276C203.421 38.6764 202.12 37.7754 200.618 37.1247C199.116 36.449 197.502 36.1111 195.775 36.1111C194.048 36.1111 192.434 36.449 190.933 37.1247C189.431 37.7754 188.13 38.6764 187.028 39.8276C185.927 40.9788 185.051 42.3303 184.401 43.8819C183.775 45.4086 183.462 47.0353 183.462 48.7622Z" fill="white"/>
<path d="M210.214 77.1426C210.214 76.4919 210.414 75.9163 210.814 75.4158C211.19 74.9403 211.703 74.6149 212.353 74.4397C214.506 74.2395 216.245 73.4136 217.571 71.9621C218.898 70.5105 219.611 68.4208 219.711 65.6928V33.8962C219.711 32.9953 219.962 32.1944 220.462 31.4936C220.988 30.7679 221.726 30.405 222.677 30.405C223.152 30.405 224.116 30.405 225.039 30.405C225.489 30.405 226.164 30.3539 226.164 30.5039C226.314 30.8789 225.643 31.8539 225.643 33.0539C225.643 33.5586 225.643 34.0534 225.643 34.4789V62.8773C225.643 65.33 225.417 67.6074 224.967 69.7097C224.516 71.8119 223.791 73.6264 222.79 75.153C221.813 76.7047 220.525 77.9185 218.923 78.7944C217.346 79.6703 215.432 80.1083 213.179 80.1083C212.378 80.1083 211.69 79.8205 211.115 79.2449C210.514 78.6943 210.214 77.9935 210.214 77.1426ZM219.261 21.2076C219.261 20.2566 219.586 19.4432 220.237 18.7675C220.887 18.0918 221.701 17.7539 222.677 17.7539C223.152 17.7539 223.603 17.8415 224.028 18.0167C224.454 18.1919 224.817 18.4421 225.117 18.7675C225.442 19.0678 225.693 19.4307 225.868 19.8562C226.043 20.2816 226.131 20.7321 226.131 21.2076C226.131 22.1586 225.793 22.9595 225.117 23.6102C224.441 24.2609 223.628 24.5862 222.677 24.5862C221.701 24.5862 220.887 24.2609 220.237 23.6102C219.586 22.9595 219.261 22.1586 219.261 21.2076Z" fill="white"/>
<path d="M291.145 22.4464C291.12 22.1211 291.058 21.8083 290.957 21.5079C290.882 21.1826 290.845 20.8698 290.845 20.5694C290.845 20.194 290.995 19.8937 291.295 19.6685C291.596 19.4432 292.209 19.3306 293.135 19.3306C293.685 19.3306 294.186 19.3932 294.636 19.5183C295.112 19.6434 295.525 19.8562 295.875 20.1565C296.226 20.4568 296.501 20.8697 296.701 21.3953C296.901 21.8959 297.014 22.534 297.039 23.3099V48.4619C297.039 50.2888 297.364 52.0032 298.015 53.6049C298.666 55.1816 299.592 56.558 300.793 57.7343C302.019 58.9106 303.508 59.8366 305.26 60.5123C307.012 61.188 309.002 61.5259 311.229 61.5259C313.331 61.5259 315.246 61.188 316.973 60.5123C318.725 59.8366 320.226 58.9106 321.478 57.7343C322.754 56.533 323.743 55.144 324.443 53.5673C325.144 51.9656 325.494 50.2638 325.494 48.4619L325.457 22.4464C325.457 22.1211 325.407 21.8083 325.307 21.5079C325.232 21.1826 325.194 20.8698 325.194 20.5694C325.194 20.194 325.344 19.8937 325.645 19.6685C325.945 19.4432 326.558 19.3306 327.484 19.3306C328.06 19.3306 328.585 19.3932 329.061 19.5183C329.536 19.6434 329.949 19.8562 330.3 20.1565C330.65 20.4568 330.913 20.8697 331.088 21.3953C331.288 21.9209 331.388 22.5841 331.388 23.3849L331.426 48.3868C331.401 51.0146 330.9 53.4923 329.924 55.8198C328.948 58.1222 327.572 60.1369 325.795 61.8637C324.043 63.5656 321.928 64.917 319.45 65.9181C316.973 66.9192 314.232 67.4197 311.229 67.4197C308.176 67.4197 305.41 66.9317 302.933 65.9556C300.455 64.9546 298.34 63.6031 296.588 61.9013C294.837 60.1744 293.485 58.1598 292.534 55.8573C291.608 53.5298 291.145 51.0396 291.145 48.3868V22.4464Z" fill="white"/>
<path d="M344.656 63.9285C344.656 64.3039 344.594 64.6918 344.469 65.0922C344.344 65.4676 344.156 65.8055 343.906 66.1058C343.655 66.4061 343.343 66.6564 342.967 66.8566C342.592 67.0318 342.166 67.1194 341.691 67.1194C341.19 67.1194 340.752 67.0193 340.377 66.8191C340.001 66.5938 339.689 66.331 339.438 66.0307C339.188 65.7054 339 65.355 338.875 64.9796C338.775 64.6042 338.725 64.2538 338.725 63.9285V22.4464C338.725 22.1211 338.675 21.8083 338.575 21.5079C338.5 21.1826 338.462 20.8698 338.462 20.5694C338.462 20.194 338.612 19.8937 338.913 19.6685C339.213 19.4432 339.826 19.3306 340.752 19.3306C341.878 19.3306 342.792 19.5558 343.493 20.0063C344.218 20.4568 344.606 21.2326 344.656 22.3338V63.9285Z" fill="white"/>
<path d="M165.989 48.1991C165.989 46.5223 165.864 44.9456 165.614 43.469C165.389 41.9924 164.963 40.716 164.338 39.6399C163.712 38.5637 162.861 37.7128 161.785 37.0872C160.734 36.4615 159.37 36.1486 157.693 36.1486C156.116 36.1486 154.727 36.474 153.526 37.1247C152.35 37.7754 151.374 38.6638 150.598 39.7901C149.822 40.8912 149.234 42.1801 148.833 43.6567C148.564 44.716 148.391 45.8139 148.315 46.9505C148.335 47.4841 148.345 48.0255 148.345 48.5745V64.1912C148.345 64.5166 148.27 64.8544 148.12 65.2048C147.995 65.5552 147.807 65.868 147.557 66.1433C147.307 66.4186 146.994 66.6564 146.619 66.8566C146.243 67.0318 145.83 67.1194 145.38 67.1194C144.529 67.1194 143.816 66.8316 143.24 66.256C142.689 65.6803 142.414 64.9671 142.414 64.1162V48.1991C142.414 46.5223 142.289 44.9456 142.039 43.469C141.813 41.9924 141.388 40.716 140.762 39.6399C140.137 38.5637 139.286 37.7128 138.21 37.0872C137.133 36.4615 135.769 36.1486 134.118 36.1486C132.541 36.1486 131.152 36.474 129.951 37.1247C128.774 37.7754 127.599 38.9888 126.823 40.115C126.048 41.2162 125.459 42.5051 125.059 43.9817C124.684 45.4583 124.695 46.6849 124.695 48.3117V64.1537C124.695 64.9796 124.395 65.6803 123.794 66.256C123.218 66.8316 122.53 67.1194 121.729 67.1194C120.853 67.1194 120.14 66.8316 119.59 66.256C119.039 65.6803 118.764 64.9796 118.764 64.1537V48.3117C118.764 47.8112 118.996 44.0567 119.059 43.6567C119.209 42.7067 120.034 39.9985 120.484 39.6317C120.784 38.8559 121.909 37.2317 122.734 36.2567C123.709 35.2067 124.058 34.9327 125.059 34.0067C126.085 33.0557 127.834 32.1317 129.409 31.4567C130.984 30.7817 132.578 30.4801 134.456 30.4801C137.183 30.4801 139.436 30.9556 141.213 31.9066C143.015 32.8326 144.441 34.109 145.492 35.7357C145.849 36.2882 146.17 36.874 146.455 37.4929C146.639 37.1484 146.843 36.7879 147.069 36.4114C147.695 35.4104 148.496 34.4718 149.472 33.5959C150.473 32.72 151.674 31.9817 153.075 31.381C154.502 30.7804 156.166 30.4801 158.068 30.4801C160.771 30.4801 163.011 30.9681 164.788 31.9441C166.59 32.8952 168.017 34.1965 169.068 35.8483C170.119 37.5001 170.857 39.4397 171.283 41.6671C171.708 43.8945 171.921 46.2595 171.921 48.7622V64.1912C171.921 64.5166 171.858 64.8544 171.733 65.2048C171.608 65.5302 171.42 65.843 171.17 66.1433C170.92 66.4186 170.607 66.6564 170.231 66.8566C169.856 67.0318 169.431 67.1194 168.955 67.1194C168.104 67.1194 167.391 66.8316 166.815 66.256C166.265 65.6803 165.989 64.9671 165.989 64.1162V48.1991Z" fill="white"/>
<path fill-rule="evenodd" clip-rule="evenodd" d="M267.936 64.3289C267.864 65.3039 268.614 66.4784 268.239 66.8789C267.863 67.2793 266.497 67.1945 265.872 67.1945C265.171 67.1945 264.595 66.9942 264.145 66.5938C263.719 66.1684 263.364 65.6039 263.281 64.867L262.742 60.6295C262.439 61.0429 262.118 61.4418 261.78 61.8262C260.303 63.478 258.526 64.7919 256.449 65.7679C254.397 66.7189 252.107 67.1945 249.579 67.1945C247.052 67.1945 244.674 66.7189 242.447 65.7679C240.244 64.7919 238.305 63.478 236.628 61.8262C234.951 60.1494 233.625 58.1973 232.649 55.9699C231.698 53.7425 231.222 51.365 231.222 48.8373C231.222 46.3095 231.698 43.932 232.649 41.7046C233.625 39.4772 234.951 37.5376 236.628 35.8859C238.305 34.2091 240.244 32.8952 242.447 31.9441C244.674 30.9681 247.052 30.4801 249.579 30.4801C252.107 30.4801 254.857 31.0057 256.909 31.9817C258.986 32.9327 261.334 34.8317 263.209 36.5567C264.686 38.2085 267.1 27.4784 268 32.9534C268.21 34.2284 267.936 48.124 267.936 48.9499V50.6017V64.3289ZM260.916 43.9195C261.567 45.4461 261.892 47.0854 261.892 48.8373C261.892 50.5641 261.567 52.2034 260.916 53.755C260.291 55.2817 259.427 56.6206 258.326 57.7718C257.225 58.9231 255.924 59.8366 254.422 60.5123C252.92 61.188 251.306 61.5259 249.579 61.5259C247.852 61.5259 246.238 61.188 244.737 60.5123C243.235 59.8366 241.934 58.9231 240.832 57.7718C239.731 56.6206 238.855 55.2817 238.205 53.755C237.579 52.2034 237.266 50.5641 237.266 48.8373C237.266 47.0854 237.579 45.4461 238.205 43.9195C238.855 42.3678 239.731 41.0164 240.832 39.8651C241.934 38.7139 243.235 37.8129 244.737 37.1622C246.238 36.4865 247.852 36.1486 249.579 36.1486C251.306 36.1486 252.92 36.4865 254.422 37.1622C255.924 37.8129 257.225 38.7139 258.326 39.8651C259.427 41.0164 260.291 42.3678 260.916 43.9195Z" fill="white"/>
</svg>
